<svg width="34" height="34" viewBox="0 0 34 34" fill="none" xmlns="http://www.w3.org/2000/svg">
<g id="icon" clip-path="url(#clip0_20_358)">
<path id="shape" d="M34 16.8937V27.625C34 31.1313 31.1313 34 27.625 34H17C16.6812 34 16.4688 34 16.15 34C7.225 33.575 0 26.1375 0 17C0 7.65 7.65 0 17 0C26.35 0 34 7.54375 34 16.8937Z" fill="#D85151"/>
<path id="shadow" fill-rule="evenodd" clip-rule="evenodd" d="M17 13.2577C13.8995 13.2577 11.3452 15.812 11.3452 18.9125C11.3452 22.013 13.8995 24.5673 17 24.5673C20.1005 24.5673 22.6548 22.013 22.6548 18.9125C22.6548 15.812 20.1005 13.2577 17 13.2577ZM7.56734 18.9125C7.56734 13.7255 11.813 9.47984 17 9.47984C22.187 9.47984 26.4327 13.7255 26.4327 18.9125C26.4327 20.8269 25.8543 22.6131 24.8638 24.1049L27.2607 26.5018C27.9983 27.2395 27.9983 28.4355 27.2607 29.1732C26.523 29.9108 25.327 29.9108 24.5893 29.1732L22.1924 26.7763C20.7006 27.7668 18.9144 28.3452 17 28.3452C11.813 28.3452 7.56734 24.0995 7.56734 18.9125Z" fill="black" fill-opacity="0.05"/>
<g id="search">
<path id="vector" fill-rule="evenodd" clip-rule="evenodd" d="M16.8936 10.1528C13.1707 10.1528 10.1527 13.1708 10.1527 16.8938C10.1527 20.6167 13.1707 23.6347 16.8936 23.6347C20.6166 23.6347 23.6346 20.6167 23.6346 16.8938C23.6346 13.1708 20.6166 10.1528 16.8936 10.1528ZM6.84711 16.8938C6.84711 11.3452 11.3451 6.84724 16.8936 6.84724C22.4422 6.84724 26.9401 11.3452 26.9401 16.8938C26.9401 22.4423 22.4422 26.9403 16.8936 26.9403C11.3451 26.9403 6.84711 22.4423 6.84711 16.8938Z" fill="white"/>
<path id="vector_2" fill-rule="evenodd" clip-rule="evenodd" d="M22.525 22.5251C23.1704 21.8797 24.2169 21.8797 24.8624 22.5251L28.0499 25.7126C28.6953 26.3581 28.6953 27.4045 28.0499 28.05C27.4044 28.6954 26.3579 28.6954 25.7125 28.05L22.525 24.8625C21.8795 24.217 21.8795 23.1706 22.525 22.5251Z" fill="white"/>
<path id="vector_3" d="M23.1624 14.6625C25.2749 14.6625 26.9874 12.95 26.9874 10.8375C26.9874 8.72498 25.2749 7.01247 23.1624 7.01247C21.05 7.01247 19.3374 8.72498 19.3374 10.8375C19.3374 12.95 21.05 14.6625 23.1624 14.6625Z" fill="white"/>
<path id="vector_4" fill-rule="evenodd" clip-rule="evenodd" d="M23.1626 8.42913C21.8325 8.42913 20.7542 9.50737 20.7542 10.8374C20.7542 12.1675 21.8325 13.2458 23.1626 13.2458C24.4926 13.2458 25.5709 12.1675 25.5709 10.8374C25.5709 9.50737 24.4926 8.42913 23.1626 8.42913ZM17.9209 10.8374C17.9209 7.94255 20.2676 5.59576 23.1626 5.59576C26.0575 5.59576 28.4042 7.94255 28.4042 10.8374C28.4042 13.7324 26.0575 16.0791 23.1626 16.0791C20.2676 16.0791 17.9209 13.7323 17.9209 10.8374Z" fill="#D85151"/>
</g>
</g>
<defs>
<clipPath id="clip0_20_358">
<rect width="34" height="34" fill="white"/>
</clipPath>
</defs>
</svg>
